# Blender v2.78 (sub 0) OBJ File: 'tank_top.blend'
# www.blender.org
mtllib tank_top.mtl
o Plane
v -0.143151 0.025713 0.193675
v 0.143151 0.025713 0.193675
v -0.143151 0.025713 -0.193675
v 0.143151 0.025713 -0.193675
v 0.175307 0.065887 0.237181
v -0.175307 0.065887 0.237181
v 0.000000 -0.000163 -0.107416
v 0.000000 0.025272 -0.107416
v 0.020956 -0.000163 -0.105352
v 0.020956 0.025272 -0.105352
v 0.041106 -0.000163 -0.099239
v 0.041106 0.025272 -0.099239
v 0.059677 -0.000163 -0.089313
v 0.059677 0.025272 -0.089313
v 0.075955 -0.000163 -0.075955
v 0.075955 0.025272 -0.075955
v 0.089313 -0.000163 -0.059677
v 0.089313 0.025272 -0.059677
v 0.099239 -0.000163 -0.041106
v 0.099239 0.025272 -0.041106
v 0.105352 -0.000163 -0.020956
v 0.105352 0.025272 -0.020956
v 0.107416 -0.000163 -0.000000
v 0.107416 0.025272 -0.000000
v 0.105352 -0.000163 0.020956
v 0.105352 0.025272 0.020956
v 0.099239 -0.000163 0.041106
v 0.099239 0.025272 0.041106
v 0.089313 -0.000163 0.059677
v 0.089313 0.025272 0.059677
v 0.075955 -0.000163 0.075955
v 0.075955 0.025272 0.075955
v 0.059677 -0.000163 0.089313
v 0.059677 0.025272 0.089313
v 0.041106 -0.000163 0.099239
v 0.041106 0.025272 0.099239
v 0.020956 -0.000163 0.105352
v 0.020956 0.025272 0.105352
v -0.000000 -0.000163 0.107416
v -0.000000 0.025272 0.107416
v -0.020956 -0.000163 0.105352
v -0.020956 0.025272 0.105352
v -0.041106 -0.000163 0.099239
v -0.041106 0.025272 0.099239
v -0.059677 -0.000163 0.089313
v -0.059677 0.025272 0.089313
v -0.075955 -0.000163 0.075954
v -0.075955 0.025272 0.075954
v -0.089313 -0.000163 0.059677
v -0.089313 0.025272 0.059677
v -0.099239 -0.000163 0.041106
v -0.099239 0.025272 0.041106
v -0.105352 -0.000163 0.020956
v -0.105352 0.025272 0.020956
v -0.107416 -0.000163 -0.000000
v -0.107416 0.025272 -0.000000
v -0.105352 -0.000163 -0.020956
v -0.105352 0.025272 -0.020956
v -0.099239 -0.000163 -0.041106
v -0.099239 0.025272 -0.041106
v -0.089313 -0.000163 -0.059677
v -0.089313 0.025272 -0.059677
v -0.075954 -0.000163 -0.075955
v -0.075954 0.025272 -0.075955
v -0.059677 -0.000163 -0.089313
v -0.059677 0.025272 -0.089313
v -0.041106 -0.000163 -0.099239
v -0.041106 0.025272 -0.099239
v -0.020956 -0.000163 -0.105352
v -0.020956 0.025272 -0.105352
v -0.175307 0.065887 -0.237181
v 0.175307 0.065887 -0.237181
v 0.141010 0.160707 0.190778
v -0.141010 0.160707 0.190778
v -0.141010 0.160707 -0.190778
v 0.141010 0.160707 -0.190778
v 0.000000 0.145518 -0.762773
v 0.000000 0.145518 -0.191127
v 0.006684 0.144859 -0.762773
v 0.006684 0.144859 -0.191127
v 0.013110 0.142910 -0.762773
v 0.013110 0.142910 -0.191127
v 0.019033 0.139744 -0.762773
v 0.019033 0.139744 -0.191127
v 0.024225 0.135483 -0.762773
v 0.024225 0.135483 -0.191127
v 0.028485 0.130292 -0.762773
v 0.028485 0.130292 -0.191127
v 0.031651 0.124369 -0.762773
v 0.031651 0.124369 -0.191127
v 0.033601 0.117942 -0.762773
v 0.033601 0.117942 -0.191127
v 0.034259 0.111259 -0.762773
v 0.034259 0.111259 -0.191127
v 0.033601 0.104575 -0.762773
v 0.033601 0.104575 -0.191127
v 0.031651 0.098148 -0.762773
v 0.031651 0.098148 -0.191127
v 0.028485 0.092225 -0.762773
v 0.028485 0.092225 -0.191127
v 0.024225 0.087034 -0.762773
v 0.024225 0.087034 -0.191127
v 0.019033 0.082773 -0.762773
v 0.019033 0.082773 -0.191127
v 0.013110 0.079607 -0.762773
v 0.013110 0.079607 -0.191127
v 0.006684 0.077658 -0.762773
v 0.006684 0.077658 -0.191127
v -0.000000 0.077000 -0.762773
v -0.000000 0.077000 -0.191127
v -0.006684 0.077658 -0.762773
v -0.006684 0.077658 -0.191127
v -0.013110 0.079607 -0.762773
v -0.013110 0.079607 -0.191127
v -0.019033 0.082773 -0.762773
v -0.019033 0.082773 -0.191127
v -0.024225 0.087034 -0.762773
v -0.024225 0.087034 -0.191127
v -0.028485 0.092225 -0.762773
v -0.028485 0.092225 -0.191127
v -0.031651 0.098148 -0.762773
v -0.031651 0.098148 -0.191127
v -0.033601 0.104575 -0.762773
v -0.033601 0.104575 -0.191127
v -0.034259 0.111259 -0.762773
v -0.034259 0.111259 -0.191127
v -0.033601 0.117942 -0.762773
v -0.033601 0.117942 -0.191127
v -0.031651 0.124369 -0.762773
v -0.031651 0.124369 -0.191127
v -0.028485 0.130292 -0.762773
v -0.028485 0.130292 -0.191127
v -0.024225 0.135483 -0.762773
v -0.024225 0.135483 -0.191127
v -0.019033 0.139744 -0.762773
v -0.019033 0.139744 -0.191127
v -0.013110 0.142910 -0.762773
v -0.013110 0.142910 -0.191127
v -0.006684 0.144859 -0.762773
v -0.006684 0.144859 -0.191127
v -0.005316 0.137986 -0.762773
v -0.010428 0.136435 -0.762773
v -0.015140 0.133917 -0.762773
v -0.019269 0.130528 -0.762773
v -0.022658 0.126398 -0.762773
v -0.025176 0.121687 -0.762773
v -0.026727 0.116575 -0.762773
v -0.027251 0.111259 -0.762773
v -0.026727 0.105942 -0.762773
v -0.025176 0.100830 -0.762773
v -0.022658 0.096119 -0.762773
v -0.019269 0.091989 -0.762773
v -0.015140 0.088601 -0.762773
v -0.010428 0.086082 -0.762773
v -0.005316 0.084532 -0.762773
v -0.000000 0.084008 -0.762773
v 0.005316 0.084532 -0.762773
v 0.010428 0.086082 -0.762773
v 0.015140 0.088601 -0.762773
v 0.019269 0.091989 -0.762773
v 0.022658 0.096119 -0.762773
v 0.025176 0.100830 -0.762773
v 0.026727 0.105942 -0.762773
v 0.027251 0.111259 -0.762773
v 0.026727 0.116575 -0.762773
v 0.025176 0.121687 -0.762773
v 0.022658 0.126398 -0.762773
v 0.019269 0.130528 -0.762773
v 0.015140 0.133917 -0.762773
v 0.010428 0.136435 -0.762773
v 0.005316 0.137986 -0.762773
v 0.000000 0.138509 -0.762773
vn 0.0000 -1.0000 0.0000
vn 0.0980 0.0000 -0.9952
vn -0.2903 -0.9569 0.0000
vn 0.9569 0.2903 0.0000
vn 0.2903 0.0000 -0.9569
vn -0.0980 -0.9952 0.0000
vn 0.4714 0.0000 -0.8819
vn 0.6344 0.0000 -0.7730
vn 0.8819 0.4714 0.0000
vn 0.7730 0.0000 -0.6344
vn 0.0980 -0.9952 0.0000
vn 0.8819 0.0000 -0.4714
vn 0.9569 0.0000 -0.2903
vn 0.7730 0.6344 0.0000
vn 0.9952 0.0000 -0.0980
vn 0.2903 -0.9569 0.0000
vn 0.9952 0.0000 0.0980
vn 0.9569 0.0000 0.2903
vn 0.6344 0.7730 0.0000
vn 0.8819 0.0000 0.4714
vn 0.4714 -0.8819 0.0000
vn 0.7730 0.0000 0.6344
vn 0.6344 0.0000 0.7730
vn 0.4714 0.8819 0.0000
vn 0.4714 0.0000 0.8819
vn 0.6344 -0.7730 0.0000
vn 0.2903 0.0000 0.9569
vn 0.0980 0.0000 0.9952
vn 0.2903 0.9569 0.0000
vn -0.0980 0.0000 0.9952
vn 0.7730 -0.6344 0.0000
vn -0.2903 0.0000 0.9569
vn -0.4714 0.0000 0.8819
vn 0.0980 0.9952 0.0000
vn -0.6344 0.0000 0.7730
vn 0.8819 -0.4714 0.0000
vn -0.7730 0.0000 0.6344
vn -0.8819 0.0000 0.4714
vn 0.9404 0.3401 0.0000
vn -0.9569 0.0000 0.2903
vn 0.9569 -0.2903 0.0000
vn 0.0000 0.4396 -0.8982
vn -0.9952 0.0000 0.0980
vn -0.9404 0.3401 0.0000
vn -0.9952 0.0000 -0.0980
vn 0.0000 1.0000 0.0000
vn -0.9569 0.0000 -0.2903
vn 0.9952 -0.0980 0.0000
vn 0.7807 -0.6249 0.0000
vn -0.8819 0.0000 -0.4714
vn 0.0000 -0.7347 0.6784
vn -0.7730 0.0000 -0.6344
vn 0.0000 -0.7347 -0.6784
vn -0.6344 0.0000 -0.7730
vn 0.9952 0.0980 0.0000
vn -0.7807 -0.6249 0.0000
vn -0.4714 0.0000 -0.8819
vn 0.0000 0.4396 0.8982
vn -0.2903 0.0000 -0.9569
vn -0.0980 0.0000 -0.9952
vn -0.4714 -0.8819 0.0000
vn -0.6344 -0.7730 0.0000
vn -0.7730 -0.6344 0.0000
vn -0.8819 -0.4714 -0.0000
vn -0.9569 -0.2903 0.0000
vn -0.9952 -0.0980 0.0000
vn -0.9952 0.0980 0.0000
vn -0.9569 0.2903 0.0000
vn -0.8819 0.4714 0.0000
vn -0.7730 0.6344 0.0000
vn -0.6344 0.7730 0.0000
vn -0.4714 0.8819 0.0000
vn -0.2903 0.9569 0.0000
vn -0.0980 0.9952 0.0000
vn 0.0000 0.0000 1.0000
vn -0.0000 0.0000 -1.0000
vn -0.0002 -0.0001 1.0000
vn 0.0000 0.0001 1.0000
vn 0.0001 -0.0002 1.0000
vn 0.0002 -0.0001 1.0000
vn -0.0001 0.0000 1.0000
vn -0.0000 -0.0001 1.0000
vn 0.0001 -0.0000 1.0000
usemtl None
s off
f 3//1 2//1 1//1
f 8//2 9//2 7//2
f 111//3 114//3 113//3
f 89//4 92//4 91//4
f 10//5 11//5 9//5
f 110//6 111//6 109//6
f 12//7 13//7 11//7
f 14//8 15//8 13//8
f 88//9 89//9 87//9
f 16//10 17//10 15//10
f 108//11 109//11 107//11
f 18//12 19//12 17//12
f 20//13 21//13 19//13
f 86//14 87//14 85//14
f 22//15 23//15 21//15
f 106//16 107//16 105//16
f 24//17 25//17 23//17
f 26//18 27//18 25//18
f 84//19 85//19 83//19
f 28//20 29//20 27//20
f 104//21 105//21 103//21
f 30//22 31//22 29//22
f 32//23 33//23 31//23
f 82//24 83//24 81//24
f 34//25 35//25 33//25
f 102//26 103//26 101//26
f 36//27 37//27 35//27
f 38//28 39//28 37//28
f 80//29 81//29 79//29
f 40//30 41//30 39//30
f 100//31 101//31 99//31
f 42//32 43//32 41//32
f 44//33 45//33 43//33
f 77//34 80//34 79//34
f 46//35 47//35 45//35
f 98//36 99//36 97//36
f 48//37 49//37 47//37
f 50//38 51//38 49//38
f 5//39 76//39 73//39
f 52//40 53//40 51//40
f 96//41 97//41 95//41
f 71//42 76//42 72//42
f 54//43 55//43 53//43
f 71//44 74//44 75//44
f 56//45 57//45 55//45
f 73//46 75//46 74//46
f 58//47 59//47 57//47
f 94//48 95//48 93//48
f 4//49 5//49 2//49
f 60//50 61//50 59//50
f 2//51 6//51 1//51
f 62//52 63//52 61//52
f 3//53 72//53 4//53
f 64//54 65//54 63//54
f 92//55 93//55 91//55
f 1//56 71//56 3//56
f 66//57 67//57 65//57
f 44//46 28//46 12//46
f 5//58 74//58 6//58
f 68//59 69//59 67//59
f 70//60 7//60 69//60
f 37//1 53//1 69//1
f 114//61 115//61 113//61
f 116//62 117//62 115//62
f 118//63 119//63 117//63
f 120//64 121//64 119//64
f 122//65 123//65 121//65
f 124//66 125//66 123//66
f 125//67 128//67 127//67
f 128//68 129//68 127//68
f 129//69 132//69 131//69
f 132//70 133//70 131//70
f 134//71 135//71 133//71
f 136//72 137//72 135//72
f 137//73 140//73 139//73
f 140//74 77//74 139//74
f 84//75 124//75 116//75
f 113//76 155//76 111//76
f 129//76 145//76 146//76
f 91//76 164//76 165//76
f 103//76 158//76 159//76
f 123//76 150//76 121//76
f 77//76 141//76 139//76
f 95//76 162//76 163//76
f 87//76 166//76 167//76
f 115//76 154//76 113//76
f 133//76 145//76 131//76
f 107//76 158//76 105//76
f 125//76 149//76 123//76
f 97//76 161//76 162//76
f 117//76 153//76 115//76
f 135//76 144//76 133//76
f 93//76 163//76 164//76
f 107//76 156//76 157//76
f 127//76 148//76 125//76
f 79//76 170//76 171//76
f 85//76 169//76 83//76
f 89//76 165//76 166//76
f 101//76 161//76 99//76
f 117//76 151//76 152//76
f 135//76 142//76 143//76
f 111//76 156//76 109//76
f 129//76 147//76 127//76
f 79//76 172//76 77//76
f 101//76 159//76 160//76
f 121//76 151//76 119//76
f 139//76 142//76 137//76
f 85//76 167//76 168//76
f 83//76 170//76 81//76
f 3//1 4//1 2//1
f 8//2 10//2 9//2
f 111//3 112//3 114//3
f 89//4 90//4 92//4
f 10//5 12//5 11//5
f 110//6 112//6 111//6
f 12//7 14//7 13//7
f 14//8 16//8 15//8
f 88//9 90//9 89//9
f 16//10 18//10 17//10
f 108//11 110//11 109//11
f 18//12 20//12 19//12
f 20//13 22//13 21//13
f 86//14 88//14 87//14
f 22//15 24//15 23//15
f 106//16 108//16 107//16
f 24//17 26//17 25//17
f 26//18 28//18 27//18
f 84//19 86//19 85//19
f 28//20 30//20 29//20
f 104//21 106//21 105//21
f 30//22 32//22 31//22
f 32//23 34//23 33//23
f 82//24 84//24 83//24
f 34//25 36//25 35//25
f 102//26 104//26 103//26
f 36//27 38//27 37//27
f 38//28 40//28 39//28
f 80//29 82//29 81//29
f 40//30 42//30 41//30
f 100//31 102//31 101//31
f 42//32 44//32 43//32
f 44//33 46//33 45//33
f 77//34 78//34 80//34
f 46//35 48//35 47//35
f 98//36 100//36 99//36
f 48//37 50//37 49//37
f 50//38 52//38 51//38
f 5//39 72//39 76//39
f 52//40 54//40 53//40
f 96//41 98//41 97//41
f 71//42 75//42 76//42
f 54//43 56//43 55//43
f 71//44 6//44 74//44
f 56//45 58//45 57//45
f 73//46 76//46 75//46
f 58//47 60//47 59//47
f 94//48 96//48 95//48
f 4//49 72//49 5//49
f 60//50 62//50 61//50
f 2//51 5//51 6//51
f 62//52 64//52 63//52
f 3//53 71//53 72//53
f 64//54 66//54 65//54
f 92//55 94//55 93//55
f 1//56 6//56 71//56
f 66//57 68//57 67//57
f 12//46 10//46 68//46
f 8//46 70//46 68//46
f 68//46 66//46 64//46
f 64//46 62//46 60//46
f 60//46 58//46 56//46
f 56//46 54//46 52//46
f 52//46 50//46 44//46
f 48//46 46//46 44//46
f 44//46 42//46 40//46
f 40//46 38//46 44//46
f 36//46 34//46 32//46
f 32//46 30//46 28//46
f 28//46 26//46 24//46
f 24//46 22//46 20//46
f 20//46 18//46 16//46
f 16//46 14//46 12//46
f 10//46 8//46 68//46
f 68//46 64//46 60//46
f 60//46 56//46 44//46
f 50//46 48//46 44//46
f 44//46 38//46 36//46
f 36//46 32//46 44//46
f 28//46 24//46 20//46
f 20//46 16//46 28//46
f 12//46 68//46 60//46
f 56//46 52//46 44//46
f 44//46 32//46 28//46
f 28//46 16//46 12//46
f 12//46 60//46 44//46
f 5//58 73//58 74//58
f 68//59 70//59 69//59
f 70//60 8//60 7//60
f 69//1 7//1 9//1
f 9//1 11//1 13//1
f 13//1 15//1 17//1
f 17//1 19//1 13//1
f 21//1 23//1 25//1
f 25//1 27//1 21//1
f 29//1 31//1 37//1
f 33//1 35//1 37//1
f 37//1 39//1 41//1
f 41//1 43//1 45//1
f 45//1 47//1 53//1
f 49//1 51//1 53//1
f 53//1 55//1 61//1
f 57//1 59//1 61//1
f 61//1 63//1 69//1
f 65//1 67//1 69//1
f 69//1 9//1 21//1
f 13//1 19//1 21//1
f 21//1 27//1 29//1
f 31//1 33//1 37//1
f 37//1 41//1 53//1
f 47//1 49//1 53//1
f 55//1 57//1 61//1
f 63//1 65//1 69//1
f 9//1 13//1 21//1
f 21//1 29//1 37//1
f 41//1 45//1 53//1
f 53//1 61//1 69//1
f 69//1 21//1 37//1
f 114//61 116//61 115//61
f 116//62 118//62 117//62
f 118//63 120//63 119//63
f 120//64 122//64 121//64
f 122//65 124//65 123//65
f 124//66 126//66 125//66
f 125//67 126//67 128//67
f 128//68 130//68 129//68
f 129//69 130//69 132//69
f 132//70 134//70 133//70
f 134//71 136//71 135//71
f 136//72 138//72 137//72
f 137//73 138//73 140//73
f 140//74 78//74 77//74
f 116//75 114//75 108//75
f 112//75 110//75 108//75
f 108//75 106//75 104//75
f 104//75 102//75 100//75
f 100//75 98//75 92//75
f 96//75 94//75 92//75
f 92//77 90//77 88//77
f 88//75 86//75 92//75
f 84//75 82//75 80//75
f 80//78 78//78 84//78
f 140//79 138//79 136//79
f 136//75 134//75 132//75
f 132//80 130//80 128//80
f 128//81 126//81 132//81
f 124//75 122//75 120//75
f 120//75 118//75 124//75
f 114//75 112//75 108//75
f 108//75 104//75 116//75
f 98//75 96//75 92//75
f 92//75 86//75 84//75
f 84//82 78//82 140//82
f 140//75 136//75 84//75
f 132//83 126//83 124//83
f 124//75 118//75 116//75
f 116//75 104//75 100//75
f 100//75 92//75 116//75
f 84//75 136//75 132//75
f 132//75 124//75 84//75
f 116//75 92//75 84//75
f 113//76 154//76 155//76
f 129//76 131//76 145//76
f 91//76 93//76 164//76
f 103//76 105//76 158//76
f 123//76 149//76 150//76
f 77//76 172//76 141//76
f 95//76 97//76 162//76
f 87//76 89//76 166//76
f 115//76 153//76 154//76
f 133//76 144//76 145//76
f 107//76 157//76 158//76
f 125//76 148//76 149//76
f 97//76 99//76 161//76
f 117//76 152//76 153//76
f 135//76 143//76 144//76
f 93//76 95//76 163//76
f 107//76 109//76 156//76
f 127//76 147//76 148//76
f 79//76 81//76 170//76
f 85//76 168//76 169//76
f 89//76 91//76 165//76
f 101//76 160//76 161//76
f 117//76 119//76 151//76
f 135//76 137//76 142//76
f 111//76 155//76 156//76
f 129//76 146//76 147//76
f 79//76 171//76 172//76
f 101//76 103//76 159//76
f 121//76 150//76 151//76
f 139//76 141//76 142//76
f 85//76 87//76 167//76
f 83//76 169//76 170//76
